<?xml version="1.0" encoding="UTF-8"?>
<svg width="120px" height="115px" viewBox="0 0 120 115" version="1.1" xmlns="http://www.w3.org/2000/svg" xmlns:xlink="http://www.w3.org/1999/xlink">
    <title>dashboard</title>
    <g id="guinsoolab-graylog" stroke="none" stroke-width="1" fill="none" fill-rule="evenodd">
        <g id="dashboard" fill="#FFFFFF" fill-rule="nonzero">
            <path d="M75.84,31.6772727 L109.090909,31.6772727 L109.090909,10.4545455 L75.84,10.4545455 L75.84,31.6772727 L75.84,31.6772727 Z M70.3854545,0 L114.545455,0 C117.557917,0 120,2.34032972 120,5.22727273 L120,36.9045455 C120,39.7914885 117.557917,42.1318182 114.545455,42.1318182 L70.3854545,42.1318182 C68.9388191,42.1318182 67.5514342,41.5810892 66.5285085,40.6007854 C65.5055828,39.6204817 64.9309091,38.2909044 64.9309091,36.9045455 L64.9309091,5.22727273 C64.9309091,3.8409138 65.5055828,2.51133653 66.5285085,1.53103273 C67.5514342,0.550728938 68.9388191,0 70.3854545,0 Z M109.090909,104.545455 L109.090909,62.2881818 L75.84,62.2881818 L75.84,104.545455 L109.090909,104.545455 Z M64.9309091,109.772727 L64.9309091,57.0609091 C64.9309091,55.6745502 65.5055828,54.3449729 66.5285085,53.3646691 C67.5514342,52.3843653 68.9388191,51.8336364 70.3854545,51.8336364 L114.545455,51.8336364 C117.557917,51.8336364 120,54.1739661 120,57.0609091 L120,109.772727 C120,112.65967 117.557917,115 114.545455,115 L70.3854545,115 C68.9388191,115 67.5514342,114.449271 66.5285085,113.468967 C65.5055828,112.488663 64.9309091,111.159086 64.9309091,109.772727 Z M44.16,104.545455 L44.16,83.3227273 L10.9090909,83.3227273 L10.9090909,104.545455 L44.16,104.545455 L44.16,104.545455 Z M0,109.772727 L0,78.0954545 C0,75.2085115 2.44208318,72.8681818 5.45454545,72.8681818 L49.6145455,72.8681818 C51.0611809,72.8681818 52.4485658,73.4189108 53.4714915,74.3992146 C54.4944172,75.3795183 55.0690909,76.7090956 55.0690909,78.0954545 L55.0690909,109.772727 C55.0690909,112.65967 52.6270077,115 49.6145455,115 L5.45454545,115 C2.44208318,115 0,112.65967 0,109.772727 Z M44.16,52.7118182 L44.16,10.4545455 L10.9090909,10.4545455 L10.9090909,52.7118182 L44.16,52.7118182 Z M0,57.9390909 L0,5.22727273 C0,2.34032972 2.44208318,0 5.45454545,0 L49.6145455,0 C51.0611809,0 52.4485658,0.550728938 53.4714915,1.53103273 C54.4944172,2.51133653 55.0690909,3.8409138 55.0690909,5.22727273 L55.0690909,57.9390909 C55.0690909,60.8260339 52.6270077,63.1663636 49.6145455,63.1663636 L5.45454545,63.1663636 C2.44208318,63.1663636 0,60.8260339 0,57.9390909 Z" id="Shape"></path>
        </g>
    </g>
</svg>