<?xml version="1.0" encoding="UTF-8"?>
<svg width="120px" height="120px" viewBox="0 0 120 120" version="1.1" xmlns="http://www.w3.org/2000/svg" xmlns:xlink="http://www.w3.org/1999/xlink">
    <title>notification</title>
    <g id="guinsoolab-graylog" stroke="none" stroke-width="1" fill="none" fill-rule="evenodd">
        <g id="notification" transform="translate(0.000000, 0.000000)" fill="#FFFFFF" fill-rule="nonzero">
            <path d="M59.4606627,0 C62.5678912,0 65.1503936,2.04459583 65.3834356,4.69105079 L65.4012484,5.07140624 L65.3982797,11.0049512 C89.5050043,12.8560143 108.20256,31.9929647 108.20256,55.0754688 L108.20256,70.1375444 C108.20256,76.6695153 110.731985,82.9428444 115.244573,87.6972875 L117.667121,90.2507404 C122.918943,95.7836442 118.819019,104.716926 110.206506,104.716926 L84.0156774,104.716926 C80.8471831,113.785264 71.0824102,120 60.0024703,120 C48.9225304,120 39.1577575,113.785264 35.9892631,104.716926 L9.79249728,104.716926 C1.17998396,104.716926 -2.91994046,95.7811086 2.3348505,90.2507404 L4.75739819,87.6947518 C9.26998708,82.9428444 11.796443,76.6695153 11.796443,70.1375444 L11.796443,55.0754688 C11.796443,32.3378202 29.9418002,13.4316189 53.5230458,11.1013078 L53.5230458,5.07140624 C53.5230458,2.27054606 56.1814074,0 59.4606627,0 Z M71.0687037,104.716926 L48.9302992,104.716926 C51.3557614,107.929712 55.5252688,109.870791 60.0009859,109.870791 C64.476703,109.870791 68.6462104,107.929712 71.0716726,104.716926 L71.0687037,104.716926 Z M61.5655479,21.003228 L59.4606627,21.003228 L59.395349,21.0006923 L58.4364238,21.0006923 C39.6854297,21.0006923 24.134811,35.6925553 23.6835521,54.2437583 L23.6716769,55.0780044 L23.6716769,70.1375444 C23.6716769,78.9643264 20.2337967,87.496967 13.9844549,94.0796518 L13.5124143,94.5715783 L106.48362,94.5715783 L106.020486,94.0821876 C100.008649,87.7505373 96.5974877,79.6185379 96.3421701,71.1543614 L96.327326,70.1375444 L96.327326,55.0754688 C96.327326,36.1337676 80.5956101,21.003228 61.5625791,21.003228 L61.5655479,21.003228 Z" id="Shape"></path>
        </g>
    </g>
</svg>