<?xml version="1.0" encoding="UTF-8"?>
<svg width="120px" height="100px" viewBox="0 0 120 100" version="1.1" xmlns="http://www.w3.org/2000/svg" xmlns:xlink="http://www.w3.org/1999/xlink">
    <title>search</title>
    <g id="guinsoolab-graylog" stroke="none" stroke-width="1" fill="none" fill-rule="evenodd">
        <g id="search" fill="#FFFFFF" fill-rule="nonzero">
            <path d="M77.6785412,89.4063814 C69.2784081,89.4063814 61.380847,86.1475117 55.4407432,80.230268 C49.5006394,74.3130242 46.2291797,66.4458564 46.2291797,58.0780507 C46.2291797,49.7102449 49.5006394,41.8430771 55.4407432,35.9258334 C61.380847,30.0085897 69.2784081,26.74972 77.6785412,26.74972 C86.0786743,26.74972 93.9762354,30.0085897 99.9163392,35.9258334 C105.856443,41.8430771 109.127903,49.7102449 109.127903,58.0780507 C109.127903,66.4458564 105.856443,74.3130242 99.9163392,80.230268 C93.9762354,86.1475117 86.0786743,89.4063814 77.6785412,89.4063814 Z M77.6785412,35.3874114 C65.1183034,35.3874114 54.9002411,45.5661502 54.9002411,58.0780507 C54.9002411,70.5899512 65.1183034,80.7686899 77.6785412,80.7686899 C90.238779,80.7686899 100.456841,70.5899512 100.456841,58.0780507 C100.458196,45.5674996 90.238779,35.3874114 77.6785412,35.3874114 L77.6785412,35.3874114 Z M0,42.8645783 L42.9502695,42.6102272 L42.9930761,53.0317856 L0.0428066766,53.2861367 L0,42.8645783 Z M0,85.5786006 L42.9502695,85.3240904 L42.9930761,95.7454899 L0.0428066766,96 L0,85.5786006 Z M0.0209969458,0 L116,0 L116,10.4658617 L0.0209969458,10.4658617 L0.0209969458,0 Z" id="Shape"></path>
            <polygon id="Path" points="93 79.2307274 98.9676045 73 120 93.7691368 114.032395 100"></polygon>
        </g>
    </g>
</svg>