<?xml version="1.0" encoding="UTF-8"?>
<svg width="121px" height="116px" viewBox="0 0 121 116" version="1.1" xmlns="http://www.w3.org/2000/svg" xmlns:xlink="http://www.w3.org/1999/xlink">
    <title>stream</title>
    <g id="guinsoolab-graylog" stroke="none" stroke-width="1" fill="none" fill-rule="evenodd">
        <g id="stream" transform="translate(0.576919, 0.250000)" fill="#FFFFFF" fill-rule="nonzero">
            <path d="M0,0 L0,31.3636364 L99.1304348,31.3636364 L99.1304348,0 L0,0 Z M10.4347826,10.4545455 L88.6956522,10.4545455 L88.6956522,20.9090909 L10.4347826,20.9090909 L10.4347826,10.4545455 Z M20.8695652,41.8181818 L20.8695652,73.1818182 L120,73.1818182 L120,41.8181818 L20.8695652,41.8181818 Z M31.3043478,52.2727273 L109.565217,52.2727273 L109.565217,62.7272727 L31.3043478,62.7272727 L31.3043478,52.2727273 Z M0,83.6363636 L0,115 L99.1304348,115 L99.1304348,83.6363636 L0,83.6363636 Z M10.4347826,94.0909091 L88.6956522,94.0909091 L88.6956522,104.545455 L10.4347826,104.545455 L10.4347826,94.0909091 Z" id="Shape"></path>
        </g>
    </g>
</svg>