<?xml version="1.0" encoding="UTF-8"?>
<svg width="121px" height="121px" viewBox="0 0 121 121" version="1.1" xmlns="http://www.w3.org/2000/svg" xmlns:xlink="http://www.w3.org/1999/xlink">
    <title>help</title>
    <g id="guinsoolab-graylog" stroke="none" stroke-width="1" fill="none" fill-rule="evenodd">
        <g id="help" transform="translate(0.493585, 0.166667)" fill="#FFFFFF" fill-rule="nonzero">
            <path d="M60,-4.70212104e-15 C93.1376471,-4.70212104e-15 120,26.8623529 120,60 C120,93.1376471 93.1376471,120 60,120 C26.8623529,120 -4.70212104e-15,93.1376471 -4.70212104e-15,60 C-4.70212104e-15,26.8623529 26.8623529,-4.70212104e-15 60,-4.70212104e-15 Z M66.5611765,81.1764706 L56.6400001,81.1764706 L56.6400001,91.7647059 L66.5611765,91.7647059 L66.5611765,81.1764706 Z M65.9752941,28.7717648 C59.5658824,27.4729412 52.6235294,28.32 47.6964706,33.5964706 C43.2988236,38.3188235 42.3529411,42.0564705 42.3529411,50.3011765 L52.2352942,50.3011765 L52.2352942,47.9011764 C52.2811765,43.6694117 52.9941178,39.3070587 59.177647,38.0894118 C62.2818226,37.4044061 65.5266957,38.2379034 67.9164706,40.3341177 C70.1188236,42.4552941 70.1682354,47.2588236 66.6105882,49.6517648 L61.0411764,53.3576471 L60.4164705,53.7705883 C57.6388235,55.7011765 56.6399999,57.8788236 56.6400001,60.9917648 L56.6400001,74.117647 L66.5611765,74.117647 L66.5611765,64.602353 L66.5788235,64.1364706 C66.7199999,62.2658824 67.7364705,60.5117648 70.14,58.9764705 C72.7411766,57.3141176 80.0011765,53.9505881 80.0011765,45.06 C80.0011765,36.1729413 72.3811764,30.0635295 65.9752941,28.7717648 L65.9752941,28.7717648 Z" id="Shape"></path>
        </g>
    </g>
</svg>